<svg width="329" height="424" viewBox="0 0 329 424" fill="none" xmlns="http://www.w3.org/2000/svg">
<path opacity="0.5" d="M153.889 129.983C182.638 113.209 206.405 128.886 210.609 165.084C211.341 171.346 206.587 179.618 200.783 183.001L106.996 237.755C101.191 241.138 96.4379 238.395 97.1692 231.265C101.374 190.268 125.186 146.756 153.889 129.983Z" fill="url(#paint0_linear_4_7)"/>
<path opacity="0.5" d="M121.85 82.9976C121.85 107.998 136.293 119.79 154.118 109.369C171.943 98.9487 186.386 70.2915 186.386 45.2908C186.386 20.2901 171.943 8.49813 154.118 18.9189C136.293 29.3397 121.85 57.9968 121.85 82.9976Z" fill="url(#paint1_linear_4_7)"/>
<path opacity="0.07" d="M135.424 114.991C164.173 98.2175 187.94 113.894 192.145 150.093C192.876 156.354 188.123 164.627 182.318 168.009L88.5309 222.764C82.7264 226.146 77.973 223.404 78.7043 216.274C82.9092 175.276 106.676 131.765 135.424 114.991Z" fill="url(#paint2_linear_4_7)"/>
<path opacity="0.07" d="M103.385 68.0063C103.385 93.007 117.828 104.799 135.653 94.3782C153.478 83.9574 167.921 55.3003 167.921 30.2995C167.921 5.29879 153.478 -6.49315 135.653 3.92764C117.828 14.3484 103.385 43.0056 103.385 68.0063Z" fill="url(#paint3_linear_4_7)"/>
<path opacity="0.2" d="M41.2718 258.764C41.2718 257.162 42.1264 255.681 43.5138 254.88L115.764 213.165C118.753 211.439 122.49 213.596 122.49 217.048V251.604L41.2718 298.498V258.764Z" fill="url(#paint4_linear_4_7)"/>
<path d="M105.99 233.002C105.99 236.476 108.047 238.121 110.607 236.658C113.166 235.196 115.223 231.174 115.223 227.7C115.223 224.227 113.166 222.581 110.607 224.044C108.047 225.506 105.99 229.528 105.99 233.002Z" fill="#E559F9"/>
<path opacity="0.15" d="M101.694 231.494L77.2875 245.617V250.69L101.74 236.567L101.694 231.494Z" fill="#FEFEFE"/>
<path opacity="0.15" d="M101.694 241.686L49.6816 271.714V276.879L101.694 246.851V241.686Z" fill="#FEFEFE"/>
<path opacity="0.2" d="M206.268 209.86C206.268 208.257 207.123 206.777 208.511 205.976L280.761 164.301C283.75 162.577 287.486 164.734 287.486 168.185V202.745L206.268 249.639V209.86Z" fill="url(#paint5_linear_4_7)"/>
<path d="M270.986 184.098C270.986 187.571 273.043 189.217 275.602 187.754C278.162 186.291 280.219 182.269 280.219 178.796C280.219 175.322 278.162 173.677 275.602 175.139C273.043 176.602 270.986 180.624 270.986 184.098Z" fill="#835AFD"/>
<path opacity="0.15" d="M266.827 182.818L252.11 191.319V196.484L266.827 187.982V182.818Z" fill="#FEFEFE"/>
<path opacity="0.15" d="M266.69 193.01L214.677 223.038V228.203L266.69 198.175V193.01Z" fill="#FEFEFE"/>
<path opacity="0.3" d="M153.931 261.843C153.933 258.391 150.195 256.231 147.205 257.958L2.28615 341.629C0.899582 342.43 0.0450592 343.909 0.0441437 345.51L-7.62939e-05 423.136L140.315 342.146L151.932 345.94C152.897 346.256 153.89 345.536 153.89 344.52L153.931 261.843Z" fill="url(#paint6_linear_4_7)"/>
<path d="M122.673 299C122.673 305.628 126.558 308.69 131.402 305.902C136.247 303.114 140.132 295.481 140.132 288.9C140.132 282.272 136.247 279.21 131.402 281.998C126.603 284.786 122.673 292.419 122.673 299Z" fill="#E559F9"/>
<path opacity="0.15" d="M114.354 296.441L80.6241 315.911V322.95L114.354 303.48V296.441Z" fill="#FEFEFE"/>
<path opacity="0.15" d="M114.354 310.564L13.6202 368.701V375.739L114.354 317.602V310.564Z" fill="#FEFEFE"/>
<path opacity="0.15" d="M114.354 324.687L35.6045 370.163V377.202L114.354 331.725V324.687Z" fill="#FEFEFE"/>
<path opacity="0.3" d="M174.73 279.695C174.73 278.094 175.585 276.614 176.973 275.814L321.891 192.186C324.881 190.46 328.618 192.62 328.616 196.072L328.575 268.515L188.26 349.504L177.421 365.561C176.596 366.784 174.687 366.199 174.688 364.724L174.73 279.695Z" fill="url(#paint7_linear_4_7)"/>
<path d="M205.993 285.929C205.993 292.556 202.063 300.143 197.264 302.931C192.419 305.719 188.534 302.611 188.534 295.984C188.534 289.357 192.465 281.77 197.264 278.981C202.063 276.239 205.993 279.347 205.993 285.929Z" fill="#835AFD"/>
<path opacity="0.15" d="M214.312 273.817L248.042 254.346V261.385L214.312 280.855V273.817Z" fill="#FEFEFE"/>
<path opacity="0.15" d="M214.266 287.894L315 229.757V236.796L214.312 294.933L214.266 287.894Z" fill="#FEFEFE"/>
<path opacity="0.15" d="M214.266 302.017L293.016 256.54V263.579L214.266 309.056V302.017Z" fill="#FEFEFE"/>
<path opacity="0.2" d="M264.542 327.063C261.799 328.617 259.606 332.457 259.606 335.656V349.596L250.373 354.898C247.631 356.452 245.437 360.291 245.437 363.445C245.437 366.598 247.631 367.878 250.373 366.324L259.606 360.977V374.917C259.606 378.07 261.799 379.35 264.542 377.796C267.284 376.242 269.478 372.403 269.478 369.249V355.309L278.71 350.007C281.453 348.453 283.646 344.614 283.646 341.46C283.646 338.307 281.453 337.027 278.71 338.581L269.478 343.883V329.943C269.524 326.743 267.284 325.464 264.542 327.063Z" fill="url(#paint8_linear_4_7)"/>
<path opacity="0.2" d="M65.9525 148.493L53.2465 173.448C51.5097 176.876 51.784 180.304 53.8864 181.127C55.9888 181.949 59.0968 179.801 60.8336 176.373L60.9707 176.053V203.751C60.9707 206.904 63.1645 208.184 65.9069 206.63C68.6492 205.03 70.843 201.237 70.843 198.083V170.386L70.9801 170.523C72.7169 171.94 75.8706 170.477 77.9273 167.232C80.0298 163.987 80.304 160.239 78.5672 158.823L65.9525 148.493Z" fill="url(#paint9_linear_4_7)"/>
<defs>
<linearGradient id="paint0_linear_4_7" x1="35.2953" y1="102.629" x2="152.047" y2="187.796" gradientUnits="userSpaceOnUse">
<stop stop-color="white"/>
<stop offset="1" stop-color="white" stop-opacity="0"/>
</linearGradient>
<linearGradient id="paint1_linear_4_7" x1="94.7938" y1="20.8777" x2="211.545" y2="106.044" gradientUnits="userSpaceOnUse">
<stop stop-color="white"/>
<stop offset="1" stop-color="white" stop-opacity="0"/>
</linearGradient>
<linearGradient id="paint2_linear_4_7" x1="16.8226" y1="87.6323" x2="133.574" y2="172.799" gradientUnits="userSpaceOnUse">
<stop stop-color="white"/>
<stop offset="1" stop-color="white" stop-opacity="0"/>
</linearGradient>
<linearGradient id="paint3_linear_4_7" x1="76.3211" y1="5.8808" x2="193.072" y2="91.0472" gradientUnits="userSpaceOnUse">
<stop stop-color="white"/>
<stop offset="1" stop-color="white" stop-opacity="0"/>
</linearGradient>
<linearGradient id="paint4_linear_4_7" x1="72.7275" y1="238.023" x2="91.048" y2="269.764" gradientUnits="userSpaceOnUse">
<stop stop-color="white"/>
<stop offset="1" stop-color="white" stop-opacity="0"/>
</linearGradient>
<linearGradient id="paint5_linear_4_7" x1="237.723" y1="189.125" x2="256.043" y2="220.865" gradientUnits="userSpaceOnUse">
<stop stop-color="white"/>
<stop offset="1" stop-color="white" stop-opacity="0"/>
</linearGradient>
<linearGradient id="paint6_linear_4_7" x1="87.8358" y1="256.683" x2="67.9385" y2="418.067" gradientUnits="userSpaceOnUse">
<stop stop-color="white"/>
<stop offset="1" stop-color="white" stop-opacity="0"/>
</linearGradient>
<linearGradient id="paint7_linear_4_7" x1="208.287" y1="244.987" x2="287.756" y2="307.209" gradientUnits="userSpaceOnUse">
<stop stop-color="white"/>
<stop offset="1" stop-color="white" stop-opacity="0"/>
</linearGradient>
<linearGradient id="paint8_linear_4_7" x1="255.01" y1="344.868" x2="278.94" y2="363.753" gradientUnits="userSpaceOnUse">
<stop stop-color="white"/>
<stop offset="1" stop-color="white" stop-opacity="0"/>
</linearGradient>
<linearGradient id="paint9_linear_4_7" x1="56.9207" y1="173.667" x2="80.1028" y2="186.59" gradientUnits="userSpaceOnUse">
<stop stop-color="white"/>
<stop offset="1" stop-color="white" stop-opacity="0"/>
</linearGradient>
</defs>
</svg>
